<?xml version="1.0" encoding="utf-8"?>
<!-- Generator: Adobe Illustrator 21.0.2, SVG Export Plug-In . SVG Version: 6.00 Build 0)  -->
<svg version="1.1" id="Layer_1" xmlns="http://www.w3.org/2000/svg" xmlns:xlink="http://www.w3.org/1999/xlink" x="0px" y="0px"
	 viewBox="0 0 1007 316" style="enable-background:new 0 0 1007 316;" xml:space="preserve">
<style type="text/css">
	.st0{fill:#5C2B7D;}
	.st1{fill:#88898E;}
</style>
<g>
	<g>
		<path class="st0" d="M106,221.9c-14.5-14.5-21.7-31.9-21.7-52.3c0-20.4,7.2-37.8,21.7-52.3c14.5-14.5,31.9-21.7,52.3-21.7
			c20.4,0,37.8,7.2,52.3,21.7c14.5,14.5,21.7,31.9,21.7,52.3c0,20.4-7.2,37.8-21.7,52.3c-14.5,14.5-31.9,21.7-52.3,21.7
			C137.9,243.6,120.5,236.4,106,221.9z M121.6,132.9c-10.1,10.1-15.2,22.4-15.2,36.7c0,14.3,5.1,26.6,15.2,36.7
			c10.1,10.1,22.4,15.2,36.7,15.2c14.3,0,26.6-5.1,36.7-15.2c10.1-10.1,15.2-22.4,15.2-36.7c0-14.3-5.1-26.6-15.2-36.7
			c-10.1-10.1-22.4-15.2-36.7-15.2C144,117.7,131.8,122.8,121.6,132.9z"/>
		<path class="st0" d="M399.4,97.2v145h-22v-92.1l-40.3,92.1h-24.8l-39.6-91.5v91.5h-22v-145h23l51.1,118.4l51.7-118.4H399.4z"/>
		<path class="st0" d="M529.5,97.2v145h-23l-62-103.7v103.7h-22v-145h23l61.9,103.7V97.2H529.5z"/>
		<path class="st0" d="M574.6,242.2h-22V97.4h22V242.2z"/>
		<path class="st0" d="M620.7,97.2v123h52v22h-74v-145H620.7z"/>
		<path class="st0" d="M712.5,242.2h-22V97.4h22V242.2z"/>
		<path class="st0" d="M810.5,97.2v22h-52v39.3h40.1v22h-40.1v61.7h-22v-145H810.5z"/>
		<path class="st0" d="M902.1,97.2v22h-52v39.3h40.1v22h-40.1v39.7h52v22h-74v-145H902.1z"/>
	</g>
	<g>
		<path class="st0" d="M389.1,50.6c-5.4-5.4-8.1-11.8-8.1-19.4c0-7.6,2.7-14,8.1-19.4c5.4-5.4,11.8-8,19.4-8c3.7,0,7.3,0.7,10.7,2.1
			l-2,4.6c-2.8-1.2-5.7-1.8-8.8-1.8c-6.2,0-11.5,2.2-15.9,6.6c-4.4,4.4-6.6,9.7-6.6,15.9s2.2,11.5,6.6,15.9
			c4.4,4.4,9.7,6.6,15.9,6.6c2.5,0,4.9-0.4,7.3-1.2v-19h-11.2v-5h16.2v27.3l-1.5,0.6c-3.4,1.5-7,2.2-10.8,2.2
			C401,58.7,394.5,56,389.1,50.6z"/>
		<path class="st0" d="M463,58.1h-5.6l-12.7-24.4h-12.9v24.4h-5V4.2h19.4c4.1,0,7.6,1.5,10.4,4.4c2.9,2.9,4.3,6.4,4.3,10.4
			c0,3.4-1,6.4-3.1,9.1c-2,2.6-4.6,4.3-7.8,5.2L463,58.1z M446.3,28.8c2.7,0,5-0.9,6.9-2.9c1.9-1.9,2.9-4.3,2.9-7c0-2.7-1-5-2.9-7
			c-1.9-1.9-4.2-2.9-6.9-2.9h-14.4v19.7H446.3z"/>
		<path class="st0" d="M473.3,53.3c-3.6-3.6-5.4-8-5.4-13.2V4.3h5v35.9c0,3.8,1.3,7,4,9.7c2.7,2.7,5.9,4,9.7,4c3.8,0,7-1.3,9.7-4
			c2.7-2.7,4-5.9,4-9.7V4.3h5v35.9c0,5.1-1.8,9.5-5.4,13.2c-3.6,3.6-8,5.5-13.2,5.5C481.3,58.7,476.9,56.9,473.3,53.3z"/>
		<path class="st0" d="M517.6,58.1h-5v-54h19.4c4.1,0,7.5,1.5,10.5,4.4c2.9,2.9,4.3,6.4,4.3,10.5c0,4.1-1.4,7.5-4.3,10.4
			c-2.9,2.9-6.4,4.3-10.5,4.3h-14.5V58.1z M517.6,28.8h14.5c2.7,0,5-1,7-2.9c1.9-1.9,2.9-4.2,2.9-6.9c0-2.7-1-5.1-2.9-7
			c-1.9-1.9-4.2-2.9-7-2.9h-14.5V28.8z"/>
		<path class="st0" d="M558.4,50.6c-5.4-5.4-8.1-11.8-8.1-19.4c0-7.6,2.7-14.1,8.1-19.5c5.4-5.4,11.8-8,19.4-8
			c7.6,0,14.1,2.7,19.5,8c5.4,5.4,8,11.9,8,19.5c0,7.6-2.7,14.1-8,19.4c-5.4,5.4-11.9,8.1-19.5,8.1C570.3,58.7,563.8,56,558.4,50.6z
			 M561.9,15.3c-4.4,4.4-6.6,9.7-6.6,15.9c0,6.2,2.2,11.5,6.6,15.9c4.4,4.4,9.7,6.6,15.9,6.6c6.2,0,11.5-2.2,15.9-6.6
			c4.4-4.4,6.6-9.7,6.6-15.9c0-6.2-2.2-11.5-6.6-15.9c-4.4-4.4-9.7-6.6-15.9-6.6C571.6,8.7,566.3,10.9,561.9,15.3z"/>
	</g>
	<g>
		<path class="st1" d="M132.1,295.7h11.2v8.6c-2.1,1.7-5.8,3.5-10,3.5c-8.2,0-13.7-5.8-13.7-14.5c0-8,5.8-14.3,13.1-14.3
			c5.2,0,8,1.8,10.3,3.8l0.5,0.4l2.5-2.8l-0.5-0.4c-3.9-3.2-7.6-4.5-12.6-4.5c-10.7,0-17.2,9.1-17.2,18c0,10.5,7.2,17.8,17.4,17.8
			c4.9,0,9.9-1.9,13.6-5.2l0.2-0.2v-13.8h-14.8V295.7z"/>
		<polygon class="st1" points="157.4,295 176.6,295 176.6,291.5 157.4,291.5 157.4,279.6 178.7,279.6 178.7,276.1 153.7,276.1
			153.7,310.7 178.9,310.7 178.9,307.2 157.4,307.2 		"/>
		<polygon class="st1" points="210,303.9 187.9,276.1 184.6,276.1 184.6,310.7 188.3,310.7 188.3,282.3 210.9,310.7 213.7,310.7
			213.7,276.1 210,276.1 		"/>
		<polygon class="st1" points="219,279.6 230.6,279.6 230.6,310.7 234.4,310.7 234.4,279.6 246,279.6 246,276.1 219,276.1 		"/>
		<polygon class="st1" points="255,295 274.2,295 274.2,291.5 255,291.5 255,279.6 276.3,279.6 276.3,276.1 251.3,276.1
			251.3,310.7 276.6,310.7 276.6,307.2 255,307.2 		"/>
		<path class="st1" d="M329,293.6l0.3-0.3L329,293c-0.1-10-7.6-17.6-17.4-17.6c-8.6,0-17.5,6.7-17.5,18c0,10.2,7.5,17.8,17.4,17.8
			c4.1,0,7.8-1.2,10.8-3.6l4.7,4.3l2.6-2.9l-4.8-4C327.5,301.9,328.9,297.9,329,293.6z M322.1,302.7l-6.4-5.8l-2.6,2.9l6.4,5.5
			c-2.2,1.7-4.9,2.5-7.9,2.5c-7.6,0-13.6-6.3-13.6-14.5c0-8.1,5.8-14.3,13.5-14.3c7.6,0,13.6,6.3,13.6,14.5
			C325.1,296.9,324.1,300.1,322.1,302.7z"/>
		<path class="st1" d="M359.5,296.2c0,7.4-3.7,11.5-10.5,11.5c-6.8,0-10.7-4.3-10.7-11.8v-19.9h-3.8v20.2c0,9.3,5.5,15,14.3,15
			c8.8,0,14.3-5.9,14.3-15.3v-19.9h-3.8V296.2z"/>
		<polygon class="st1" points="374.2,295 393.3,295 393.3,291.5 374.2,291.5 374.2,279.6 395.5,279.6 395.5,276.1 370.4,276.1
			370.4,310.7 395.7,310.7 395.7,307.2 374.2,307.2 		"/>
		<path class="st1" d="M441.7,302.8c-3.6,3.6-6.8,5-11,5c-7.6,0-13.5-6.3-13.5-14.5c0-8.1,5.8-14.3,13.4-14.3
			c4.2,0,7.4,1.4,10.8,4.7l0.5,0.4l2.7-2.7L444,281c-3.1-2.9-6.9-5.5-13.4-5.5c-9.7,0-17.3,7.9-17.3,18c0,10.2,7.4,17.8,17.2,17.8
			c6.7,0,10.7-3,13.7-6l0.5-0.5l-2.6-2.5L441.7,302.8z"/>
		<path class="st1" d="M473.4,296.2c0,7.4-3.7,11.5-10.5,11.5c-6.8,0-10.7-4.3-10.7-11.8v-19.9h-3.8v20.2c0,9.3,5.5,15,14.3,15
			c8.8,0,14.3-5.9,14.3-15.3v-19.9h-3.8V296.2z"/>
		<rect x="484.6" y="276.1" class="st1" width="3.8" height="34.7"/>
		<path class="st1" d="M508.1,276.1h-11.8v34.7h11.8c10.7,0,18.4-7.3,18.4-17.4C526.5,283.3,518.8,276.1,508.1,276.1z M522.6,293.5
			c0,8.1-6,13.7-14.5,13.7h-8v-27.5h8C516.5,279.6,522.6,285.4,522.6,293.5L522.6,293.5z"/>
		<path class="st1" d="M548.8,275.8h-3.2l-16.1,34.9h4l4.2-9.3h18.9l4.2,9.3h4.1l-16-34.5L548.8,275.8z M539.3,297.9l7.8-17.1
			l7.8,17.1H539.3z"/>
		<path class="st1" d="M598.8,275.8h-3.2l-16.1,34.9h4l4.2-9.3h18.9l4.1,9l0.2,0.4h4.1l-16-34.5L598.8,275.8z M589.4,297.9l7.8-17.1
			l7.8,17.1H589.4z"/>
		<polygon class="st1" points="636.5,276.1 632.8,276.1 632.8,310.7 656.1,310.7 656.1,307.2 636.5,307.2 		"/>
		<path class="st1" d="M677.4,275.8h-3.2l-16.2,34.9h4l4.2-9.3h18.9l4.1,9l0.2,0.4h4.1l-16-34.5L677.4,275.8z M667.9,297.9l7.8-17.1
			l7.8,17.1H667.9z"/>
		<path class="st1" d="M726.2,295.7h11.2v8.6c-2.1,1.7-5.8,3.5-10,3.5c-8.2,0-13.7-5.8-13.7-14.5c0-8,5.8-14.3,13.1-14.3
			c5.2,0,8.1,1.9,10.3,3.8l0.5,0.4l2.5-2.8l-0.5-0.4c-3.9-3.2-7.6-4.5-12.6-4.5c-10.7,0-17.1,9.1-17.1,18c0,10.5,7.2,17.8,17.4,17.8
			c4.9,0,9.8-1.9,13.5-5.2l0.2-0.2v-13.8h-14.8V295.7z"/>
		<polygon class="st1" points="751.5,295 770.7,295 770.7,291.5 751.5,291.5 751.5,279.6 772.8,279.6 772.8,276.1 747.8,276.1
			747.8,310.7 773,310.7 773,307.2 751.5,307.2 		"/>
		<polygon class="st1" points="804.1,303.9 782.2,276.3 782,276.1 778.7,276.1 778.7,310.7 782.4,310.7 782.4,282.3 804.8,310.5
			805,310.7 807.8,310.7 807.8,276.1 804.1,276.1 		"/>
		<polygon class="st1" points="813.1,279.6 824.7,279.6 824.7,310.7 828.5,310.7 828.5,279.6 840.1,279.6 840.1,276.1 813.1,276.1
					"/>
		<polygon class="st1" points="849.1,307.2 849.1,295 868.3,295 868.3,291.5 849.1,291.5 849.1,279.6 870.4,279.6 870.4,276.1
			845.4,276.1 845.4,310.7 870.7,310.7 870.7,307.2 		"/>
	</g>
</g>
</svg>
